# xmcd
#
# Track frame offsets:
#	150
#	15932
#	36357
#	50648
#	69523
#	83954
#	97674
#	112620
#	126187
#	141816
#	155968
#	171054
#	185931
#	201323
#
# Disc length: 2879 seconds
#
# Revision: 1
# Processed by: cddbd v1.5.1PL0 Copyright (c) Steve Scherf et al.
# Submitted via: EasyCDDAExtractor 7.0.5.4
#
DISCID=be0b3d0e
DTITLE=Henrique E Hernane - Tá No Meu Coração
DYEAR=1900
DGENRE=
TTITLE0=Amor sem Compromisso
TTITLE1=Linda Demais
TTITLE2=Ninguem Merece
TTITLE3=Tá No Meu Coração
TTITLE4=Grudei
TTITLE5=Tô Xororó
TTITLE6=Tão de Repente
TTITLE7=Não é Pedir Demais
TTITLE8=Forró Minas Goiás
TTITLE9=Me Apaixonei
TTITLE10=Se Melhorar Estraga
TTITLE11=Matematicamente
TTITLE12=Ninguém Mais Me Segura
TTITLE13=Arrastão
EXTD=
EXTT0=
EXTT1=
EXTT2=
EXTT3=
EXTT4=
EXTT5=
EXTT6=
EXTT7=
EXTT8=
EXTT9=
EXTT10=
EXTT11=
EXTT12=
EXTT13=
PLAYORDER=
